<?xml version="1.0" encoding="utf-8"?>
<!-- Generator: Adobe Illustrator 19.2.1, SVG Export Plug-In . SVG Version: 6.00 Build 0)  -->
<svg version="1.1" id="Слой_1" xmlns="http://www.w3.org/2000/svg" xmlns:xlink="http://www.w3.org/1999/xlink" x="0px" y="0px"
	 viewBox="0 0 204 424" style="enable-background:new 0 0 204 424;" xml:space="preserve">
<style type="text/css">
	.st0{fill:#FFFFFF;}
	.st1{fill:#B92D18;}
</style>
<g id="Слой_2">
	<g>
		<g>
			<g id="XMLID_2_">
				<g>
					<path class="st0" d="M197.6,226.9c1.1,2.4-0.9,5.2-3.4,6c-2.5,0.8-5.2,0.1-7.7-0.6c-6.1-1.7-12.4-3.7-16.8-8.3
						c-6.1-6.3-6.9-15.8-7.3-24.5c-0.4-7.3-0.8-14.7-1.2-22c-0.4,3.9-4.3,6.5-7.8,8.3c-3.8,1.9-7.7,3.7-10.6,6.8
						c-6.4,6.8-5.9,17.5-4.9,26.8c-6.2-8.4-9.1-20.5-3.4-29.2c1.8-2.8,4.3-5,6.7-7.3c6.6-6.3,12.7-13.2,17.2-21
						c10.3-17.8,11.9-39.2,13.3-59.7l0.5-0.2c3.6,10.5,3.7,21.9,3.8,33.1c0.1,13.3,0.2,26.6,0.3,39.9c0,6.7,0.1,13.6-1.7,20.1
						c-1.2,4.4-3.3,8.6-3.3,13.1c0,8.9,8.8,16.4,17.7,16.3C192.1,224.3,196.2,223.9,197.6,226.9z"/>
					<path class="st0" d="M195.6,284.1c0,1.2,0,2.4,0.1,3.6c0,0.4,0,0.9-0.3,1.2c-0.3,0.3-0.8,0.4-1.2,0.4c-10.3,1-20.7,0-31-1
						c-2.1-0.2-4.2-0.4-6.3-0.6c-2.9-0.3-5.8-0.6-8.5-1.7c-1.5-0.6-3-2.5-1.8-3.6c0.4-0.3,0.9-0.4,1.4-0.5c1.3-0.1,2.8,0.2,4.1,1.1
						c7.4,0.2,14.7,0.4,22.1,0.6c2.1,0,4.1,0.1,6.2-0.3c1.9-0.4,3.6-1.1,5.5-1.5c2.5-0.5,5-0.4,7.5-0.2c0.5,0,1.2,0.1,1.6,0.5
						C195.5,282.6,195.6,283.4,195.6,284.1z"/>
					<path class="st1" d="M194.8,249.9c0,0,0-0.1,0-0.1c0.4,0.3-0.1,1.1-0.6,0.7c-0.7-0.4-1.7,0.2-1.7,1c0,0.6-0.9,0.6-1,0.1
						c0.5-0.5,1-1,1.5-1.5L194.8,249.9z"/>
					<path class="st0" d="M194.8,249.8c0,0,0,0.1,0,0.1l-1.8,0.2c-0.5,0.5-1,1-1.5,1.5c0,0,0-0.1,0-0.1
						C191.5,250,193.3,248.9,194.8,249.8C194.7,249.7,194.8,249.7,194.8,249.8z"/>
					<path class="st0" d="M194.8,249.8C194.8,249.7,194.7,249.7,194.8,249.8c-1.5-0.9-3.3,0.2-3.3,1.7c0,0,0,0.1,0,0.1
						c-6,6.2-12.1,12.4-18.1,18.6c-2.6,2.7-5.4,5.5-9,6.9c-2.8,1.1-5.8,1.2-8.8,1.3c-18.3,0.5-36.6,1-54.8,1.5
						c-2.4,0.1-4.9,0.1-7.1-0.7c-1.9-0.7-3.6-2-5.2-3.4c-15.1-13.2-23.5-32.3-35.9-48.1c-2.5-3.2-6.5-6.5-10.1-4.7
						c3.3,11,8.1,21.6,14.3,31.3c2.9,4.6,6.1,8.9,9.3,13.3c2.4,3.3,4.9,6.7,7.8,9.5l-2.3,1.9c0.6,1.3,1.3,2.5,2.2,3.6
						c8.7,14.8,17.7,29.5,26.7,44.2c3.1,5.1,6.2,10.2,10.2,14.6c1.7,1.9,3.5,5,1.4,6.6c-5.7-13.5-16.5-24-26.2-35
						c-8.7-10-16.6-20.8-24.5-31.5c-9.9-13.5-19.8-27-27.5-41.8c-4.7-9-8.4-18.5-12.2-27.9c-1.4-3.5-2.7-7.6-0.5-10.7
						c4.2,6.2,11.1,10.4,18.3,12.4c7.3,2,14.9,2.1,22.4,1.5c18.5-1.6,36.6-7.5,52.4-17.1c2.7-1.6,6.4-3.2,8.5-0.9
						c1.8,2.1,0.4,5.3-1.3,7.4c-7.9,9.3-21.1,11.4-33.1,13c-7.5,1-15,2-22.4,3c8.7,11.3,17.5,22.6,26.2,33.8
						c1.3,1.7,2.6,3.4,4.5,4.3c1.9,0.9,4,1,6.1,1c11.6,0.1,23.4,0.2,34.7-2.5c11.3-2.8,22.3-8.8,28.7-18.5c0.9-1.4,1.7-2.8,3.1-3.7
						c2.6-1.6,5.9-0.4,8.5,1.2c2.5,1.6,5,3.7,8,4c2.6,0.3,5.2-1,7.5-2.1C193.8,241.9,194.3,245.8,194.8,249.8z"/>
					<path class="st0" d="M164.5,227.9c0.4,1,0.3,2.4-0.6,3c-0.4,0.3-0.9,0.4-1.5,0.5c-2,0.4-4.2,0.2-6.1-0.5v-0.1
						c-3.2-1.5-6.1-3.6-8.5-6.2c-0.5-0.6-1.1-1.3-0.9-2c0.3-1,1.5-1.2,2.5-1.2c4.5,0,9,1.4,12.7,4
						C163.1,226.1,164,226.9,164.5,227.9z"/>
					<path class="st0" d="M162.6,59.7c2,2.9,2.4,7.5-0.6,9.4c-3.3,1.3-7-0.3-10.1-2.1c5.3,13.2,9.7,26.8,13.2,40.7
						c-5.1-10.9-16.9-16.6-25.7-24.8c-5.7-5.2-10.2-11.6-16.1-16.6C117,61,109.5,57.6,102,54.2c-5.6-2.5-11.3-5.1-17.3-6.3
						c-3.9-0.8-8-1-12-1c-14.4,0-28.9,2.3-42.5,7l-1.5-2c7-9.3,13.9-18.6,20.9-27.9c2.7-3.6,5.5-7.3,9.2-10c2.7-2,5.9-3.4,9.1-4.6
						c18.9-6.7,40.9-3.6,57.2,8c3.7,2.6,7.4,5.8,11.3,8c-17.5-5.4-36.1-6.9-54.2-4.4c11.8-0.1,23.6,2.3,34.6,6.8
						c5.3,2.2,10.4,5,15.5,7.7c4.7,2.5,9.3,5,14,7.5c2,1.1,4.1,2.2,5.7,4c1.3,1.5,2.2,3.3,3.4,4.9C157.6,54.8,160.7,56.8,162.6,59.7
						z"/>
					<path class="st0" d="M151,106.6c2.8,3,5.3,6.7,5,10.7c-0.5,6.3-7.2,9.9-13.1,12.3c-5.6,2.3-11.2,4.6-16.8,7
						c-5.6,2.3-12,4.7-17.7,2.7c0.1-3.1,0.3-6.1,0.4-9.2c0.1-0.1,0.1-0.2,0.2-0.2c11.6,3.9,23.9-2.7,34.4-9.1
						c-23.4,6.9-48.6,7.6-72.3,2.1c-2.9-0.7-6-1.7-7.3-4.3s-0.1-5.9,2.1-7.9c2.1-2,5-2.9,7.8-3.9c5.5-1.8,11-3.6,16.5-5.4
						c7.2-2.4,14.7-4.8,22.3-4.4c12,0.7,22.4,8.2,32,15.4c-4.9-9.6-15.1-16.4-25.9-17.1c-2.6-0.2-5.3-0.1-7.6-1.2s-4.1-4.1-2.8-6.3
						C124.2,87.8,140.1,94.8,151,106.6z"/>
					<path class="st0" d="M118.9,296.8c-7.2-1.3-14.4-2.5-21.6-3.8c-8.6-1.5-18.3-3.9-23.5-10.4c-0.7-1.2-1.5-2.4-2.2-3.6l2.3-1.9
						c1.7,1.7,3.6,3.2,5.7,4.5c2.6,1.5,5.4,2.6,8.2,3.6C98.2,289.1,108.5,292.9,118.9,296.8z"/>
					<path class="st0" d="M101.4,134.7c0.2,0.6-0.6,1.1-0.9,0.5c-0.6-1.2-1.5-2.2-2.8-2.8c-0.5-0.2,0-1.1,0.5-0.9
						C99.6,132.2,100.7,133.3,101.4,134.7z"/>
					<path class="st0" d="M100.5,132.6c1.9,1.5,1.2,4.8-0.8,6.3c-2,1.4-4.6,1.5-7,1.5c-4.7,0-9.5,0-14.2-0.9
						c-10.8-2.1-20.5-9.2-31.5-9.6c-13.4-0.5-24.9,8.8-35,17.6c-1.8-0.9-0.1-3.6,1.6-4.7c7.9-5.3,15.8-10.5,23.7-15.8
						c-2.2-2.8-6.6-0.6-9.6,1.3c-4.5,2.9-9.5,5-14.8,6.1c4.4-2.8,8.9-5.7,13.3-8.5c1.1-0.7,2.3-1.6,2.4-2.9c0.1-0.8-0.3-1.5-0.6-2.2
						c-2.4-5.1-4.9-10.2-7.3-15.3c0.5,0.5,1,0.9,1.4,1.4c2.4,2.2,4.9,4.4,7.3,6.6c2.9,2.6,6.2,5.4,10.1,5.3c3.2-0.1,6-2.1,8.3-4.2
						c6.4-5.9,11.3-13.3,18.1-18.8c9.3-7.5,21.9-10.8,33.7-8.7c0.4,2.4,0.7,4.8,1.1,7.3c-9.5,0.6-19.2,1.4-27.7,5.7
						c-8.5,4.3-15.4,13.1-14.5,22.6c5.8-2.4,11,4.7,17.1,6.2c2.1,0.5,4.4,0.3,6.6,0.3c5.7-0.2,11.4,0.7,16.9,2.5L100.5,132.6z
						 M100.5,135.2c0.3,0.6,1.1,0.1,0.9-0.5c-0.7-1.4-1.8-2.5-3.2-3.2c-0.5-0.2-1,0.7-0.5,0.9C99,133,99.9,134,100.5,135.2z"/>
				</g>
				<g>
				</g>
			</g>
		</g>
	</g>
</g>
</svg>
