<?xml version="1.0" encoding="utf-8"?>
<!-- Generator: Adobe Illustrator 19.2.1, SVG Export Plug-In . SVG Version: 6.00 Build 0)  -->
<svg version="1.1" id="Слой_1" xmlns="http://www.w3.org/2000/svg" xmlns:xlink="http://www.w3.org/1999/xlink" x="0px" y="0px"
	 viewBox="0 0 600 600" style="enable-background:new 0 0 600 600;" xml:space="preserve">
<style type="text/css">
	.st0{fill:#B92D18;}
	.st1{fill:#FFFFFF;}
</style>
<g id="Слой_2">
	<g>
		<g>
			<path class="st0" d="M297.7,316.7c-1.4-0.8-3.2,0.3-3.2,1.8c0,0.6,1,0.6,1,0c0-0.8,1-1.4,1.7-1
				C297.7,317.9,298.2,317,297.7,316.7L297.7,316.7z"/>
		</g>
	</g>
	<g>
		<g>
			<path class="st0" d="M200.7,199.4c1.3,0.6,2.2,1.6,2.8,2.8c0.3,0.6,1.1,0.1,0.9-0.5c-0.7-1.4-1.8-2.5-3.2-3.2
				C200.7,198.3,200.2,199.2,200.7,199.4L200.7,199.4z"/>
		</g>
	</g>
	<g>
		<g id="XMLID_1_">
			<g>
				<path class="st1" d="M203.5,393.8c3.1,5.1,6.2,10.2,10.2,14.6c1.7,1.9,3.5,5,1.4,6.6c-5.7-13.5-16.5-24-26.2-35
					c-8.7-10-16.6-20.8-24.5-31.5c-9.9-13.5-19.8-27-27.5-41.8c-4.7-9-8.4-18.5-12.2-27.9c-1.4-3.5-2.7-7.6-0.5-10.7
					c4.2,6.2,11.1,10.4,18.3,12.4c7.3,2,14.9,2.1,22.4,1.5c18.5-1.6,36.6-7.5,52.4-17.1c2.7-1.6,6.4-3.2,8.5-0.9
					c1.8,2.1,0.4,5.3-1.3,7.4c-7.9,9.3-21.1,11.4-33.1,13c-7.5,1-15,2-22.4,3c8.7,11.3,17.5,22.6,26.2,33.8c1.3,1.7,2.6,3.4,4.5,4.3
					c1.9,0.9,4,1,6.1,1c11.6,0.1,23.4,0.2,34.7-2.5c11.3-2.8,22.3-8.8,28.7-18.5c0.9-1.4,1.7-2.8,3.1-3.7c2.6-1.6,5.9-0.4,8.5,1.2
					c2.5,1.6,5,3.7,8,4c2.6,0.3,5.2-1,7.5-2.1c0.5,4,1,8,1.5,12l-1.8,0.2c-6.5,6.7-13.1,13.4-19.6,20.1c-2.6,2.7-5.4,5.5-9,6.9
					c-2.8,1.1-5.8,1.2-8.8,1.3c-18.3,0.5-36.6,1-54.8,1.5c-2.4,0.1-4.9,0.1-7.1-0.7c-1.9-0.7-3.6-2-5.2-3.4
					c-15.1-13.2-23.5-32.3-35.9-48.1c-2.5-3.2-6.5-6.5-10.1-4.7c3.3,11,8.1,21.6,14.3,31.3c2.9,4.6,6.1,8.9,9.3,13.3
					c3.9,5.3,7.9,10.7,13.5,14c2.6,1.5,5.4,2.6,8.2,3.6c10.4,3.9,20.7,7.7,31.1,11.6c-7.2-1.3-14.4-2.5-21.6-3.8
					c-8.6-1.5-18.3-3.9-23.5-10.4c-0.7-1.2-1.5-2.4-2.2-3.6c0.6,1.3,1.3,2.5,2.2,3.6C185.5,364.4,194.5,379.1,203.5,393.8z"/>
			</g>
			<g>
			</g>
		</g>
		<g id="XMLID_5_">
			<g>
				<path class="st1" d="M300.6,293.9c1.1,2.4-0.9,5.2-3.4,6c-2.5,0.8-5.2,0.1-7.7-0.6c-6.1-1.7-12.4-3.7-16.8-8.3
					c-6.1-6.3-6.9-15.8-7.3-24.5c-0.4-7.3-0.8-14.7-1.2-22c-0.4,3.9-4.3,6.5-7.8,8.3c-3.8,1.9-7.7,3.7-10.6,6.8
					c-6.4,6.8-5.9,17.5-4.9,26.8c-6.2-8.4-9.1-20.5-3.4-29.2c1.8-2.8,4.3-5,6.7-7.3c6.6-6.3,12.7-13.2,17.2-21
					c10.3-17.8,11.9-39.2,13.3-59.7l0.5-0.2c3.6,10.5,3.7,21.9,3.8,33.1c0.1,13.3,0.2,26.6,0.3,39.9c0,6.7,0.1,13.6-1.7,20.1
					c-1.2,4.4-3.3,8.6-3.3,13.1c0,8.9,8.8,16.4,17.7,16.3C295.1,291.3,299.2,290.9,300.6,293.9z"/>
			</g>
			<g>
			</g>
		</g>
		<g id="XMLID_6_">
			<g>
				<path class="st1" d="M267.5,294.9c0.4,1,0.3,2.4-0.6,3c-0.4,0.3-0.9,0.4-1.5,0.5c-2,0.4-4.2,0.2-6.1-0.5l0-0.1
					c-3.2-1.5-6.1-3.6-8.5-6.2c-0.5-0.6-1.1-1.3-0.9-2c0.3-1,1.5-1.2,2.5-1.2c4.5,0,9,1.4,12.7,4C266.1,293.1,267,293.9,267.5,294.9
					z"/>
			</g>
			<g>
			</g>
		</g>
		<g id="XMLID_7_">
			<g>
				<path class="st1" d="M297,385c0.7-0.2,1.9,1.1,1.9,2.2c1.7,27,1.5,54.2-0.5,81.2c-0.4,5.5-1.8,12.1-7,13.8
					c-9.2-17.8-8.1-38.9-6.4-58.8c0.4-4.6,0.8-9.1,1.2-13.7c0.4-4.6,0.8-9.4-0.4-13.9c-1.2-4.5-4.5-8.7-9.1-9.7
					c6.8,0.3,13.6-0.3,20.3-1.7L297,385z"/>
				<path class="st1" d="M255.1,350c7.4,0.2,14.7,0.4,22.1,0.6c2.1,0,4.1,0.1,6.2-0.3c1.9-0.4,3.6-1.1,5.5-1.5
					c2.5-0.5,5-0.4,7.5-0.2c0.5,0,1.2,0.1,1.6,0.5c0.5,0.5,0.6,1.3,0.6,2c0,1.2,0,2.4,0.1,3.6c0,0.4,0,0.9-0.3,1.2
					c-0.3,0.3-0.8,0.4-1.2,0.4c-10.3,1-20.7,0-31-1c-2.1-0.2-4.2-0.4-6.3-0.6c-2.9-0.3-5.8-0.6-8.5-1.7c-1.5-0.6-3-2.5-1.8-3.6
					c0.4-0.3,0.9-0.4,1.4-0.5C252.3,348.8,253.8,349.1,255.1,350L255.1,350z"/>
			</g>
			<g>
			</g>
		</g>
		<g id="XMLID_4_">
			<g>
				<path class="st1" d="M254,173.6c2.8,3,5.3,6.7,5,10.7c-0.5,6.3-7.2,9.9-13.1,12.3c-5.6,2.3-11.2,4.6-16.8,7
					c-5.6,2.3-12,4.7-17.7,2.7c0.1-3.1,0.3-6.1,0.4-9.2c0.1-0.1,0.1-0.2,0.2-0.2c11.6,3.9,23.9-2.7,34.4-9.1
					c-23.4,6.9-48.6,7.6-72.3,2.1c-2.9-0.7-6-1.7-7.3-4.3c-1.3-2.6-0.1-5.9,2.1-7.9c2.1-2,5-2.9,7.8-3.9c5.5-1.8,11-3.6,16.5-5.4
					c7.2-2.4,14.7-4.8,22.3-4.4c12,0.7,22.4,8.2,32,15.4c-4.9-9.6-15.1-16.4-25.9-17.1c-2.6-0.2-5.3-0.1-7.6-1.2
					c-2.3-1.1-4.1-4.1-2.8-6.3C227.2,154.8,243.1,161.8,254,173.6z"/>
			</g>
			<g>
			</g>
		</g>
		<g id="XMLID_3_">
			<g>
				<path class="st1" d="M203.5,199.6c1.9,1.5,1.2,4.8-0.8,6.3c-2,1.4-4.6,1.5-7,1.5c-4.7,0-9.5,0-14.2-0.9
					c-10.8-2.1-20.5-9.2-31.5-9.6c-13.4-0.5-24.9,8.8-35,17.6c-1.8-0.9-0.1-3.6,1.6-4.7c7.9-5.3,15.8-10.5,23.7-15.8
					c-2.2-2.8-6.6-0.6-9.6,1.3c-4.5,2.9-9.5,5-14.8,6.1c4.4-2.8,8.9-5.7,13.3-8.5c1.1-0.7,2.3-1.6,2.4-2.9c0.1-0.8-0.3-1.5-0.6-2.2
					c-2.4-5.1-4.9-10.2-7.3-15.3c0.5,0.5,1,0.9,1.4,1.4c2.4,2.2,4.9,4.4,7.3,6.6c2.9,2.6,6.2,5.4,10.1,5.3c3.2-0.1,6-2.1,8.3-4.2
					c6.4-5.9,11.3-13.3,18.1-18.8c9.3-7.5,21.9-10.8,33.7-8.7c0.4,2.4,0.7,4.8,1.1,7.3c-9.5,0.6-19.2,1.4-27.7,5.7
					c-8.5,4.3-15.4,13.1-14.5,22.6c5.8-2.4,11,4.7,17.1,6.2c2.1,0.5,4.4,0.3,6.6,0.3c5.7-0.2,11.4,0.7,16.9,2.5L203.5,199.6z"/>
			</g>
			<g>
			</g>
		</g>
		<g id="XMLID_2_">
			<g>
				<path class="st1" d="M265.6,126.7c2,2.9,2.4,7.5-0.6,9.4c-3.3,1.3-7-0.3-10.1-2.1c5.3,13.2,9.7,26.8,13.2,40.7
					c-5.1-10.9-16.9-16.6-25.7-24.8c-5.7-5.2-10.2-11.6-16.1-16.6c-6.3-5.3-13.8-8.7-21.3-12.1c-5.6-2.5-11.3-5.1-17.3-6.3
					c-3.9-0.8-8-1-12-1c-14.4,0-28.9,2.3-42.5,7l-1.5-2c7-9.3,13.9-18.6,20.9-27.9c2.7-3.6,5.5-7.3,9.2-10c2.7-2,5.9-3.4,9.1-4.6
					c18.9-6.7,40.9-3.6,57.2,8c3.7,2.6,7.4,5.8,11.3,8c-17.5-5.4-36.1-6.9-54.2-4.4c11.8-0.1,23.6,2.3,34.6,6.8
					c5.3,2.2,10.4,5,15.5,7.7c4.7,2.5,9.3,5,14,7.5c2,1.1,4.1,2.2,5.7,4c1.3,1.5,2.2,3.3,3.4,4.9
					C260.6,121.8,263.7,123.8,265.6,126.7z"/>
			</g>
			<g>
			</g>
		</g>
	</g>
</g>
</svg>
